<?xml version="1.0" standalone="no"?><!DOCTYPE svg PUBLIC "-//W3C//DTD SVG 1.1//EN" "http://www.w3.org/Graphics/SVG/1.1/DTD/svg11.dtd"><svg t="1575688621397" class="icon" viewBox="0 0 1024 1024" version="1.1" xmlns="http://www.w3.org/2000/svg" p-id="1370" width="32" height="32" xmlns:xlink="http://www.w3.org/1999/xlink"><defs><style type="text/css"></style></defs><path d="M364.298 486.717c-132.96 38.716-233.953 218.535-236.258 435.69l-0.04 6.591h34l0.058-7.294c3.37-240.321 152.824-434.743 338.938-442.466l5.708-0.178 5.796-0.06c191.64 0 347.358 197.901 350.453 443.542l0.04 6.456h35.001l-0.04-6.575c-2.294-216.62-102.791-396.09-235.262-435.413l0.096-7.848 0.001-0.049v-0.009l0.001-0.04v-0.004l4.723 0.178C823.057 487.04 947.653 685.33 947.994 929H79c0.34-243.67 124.937-441.961 280.48-449.762l4.724-0.178 4.795-0.06c8.253 0 16.425 0.536 24.503 1.587a192.917 192.917 0 0 0-24.425 4.803l-0.078-6.286-0.003 6.308c-1.538 0.407-3.072 0.833-4.603 1.278l-0.188-7.528 0.093 7.555z m148.347 56.284l-4.76 0.05-3.939 0.121C369.071 548.629 252.853 684.106 230.049 865h564.905C771.881 681.79 653.141 545.744 516.642 543.04l-3.997-0.04z m-5.274 0.056l0.514-0.006 0.154-0.005-1.333-63.808 0.665 63.819zM512.5 543l0.145 0.001 0.522-0.004-0.667-63.893V543zM512 95c106.039 0 192 85.961 192 192s-85.961 192-192 192-192-85.961-192-192S405.961 95 512 95z m-143.002 0c8.301 0 16.479 0.527 24.502 1.549C299.029 108.58 225.998 189.262 225.998 287s73.03 178.419 167.5 190.451a193.788 193.788 0 0 1-24.5 1.549c-106.038 0-192-85.961-192-192s85.962-192 192-192z m288.998 0c106.038 0 192 85.961 192 192s-85.962 192-192 192c-8.473 0-16.818-0.549-25-1.613 94.226-12.252 167-92.821 167-190.387s-72.774-178.135-167-190.387a193.815 193.815 0 0 1 25-1.613zM512 159c-70.692 0-128 57.308-128 128 0 70.692 57.308 128 128 128 70.692 0 128-57.308 128-128 0-70.692-57.308-128-128-128z m145.913 326.656a193.113 193.113 0 0 0-24.922-5.003A189.774 189.774 0 0 1 657.995 479l4.795 0.06v0.004l-0.001 0.04v0.009l-0.001 0.049-0.196 7.819a198.894 198.894 0 0 0-3.06-0.88l-1.535-0.422-0.003-6.615z" fill="#1ABC9C" p-id="1371"></path></svg>