<?xml version="1.0" standalone="no"?><!DOCTYPE svg PUBLIC "-//W3C//DTD SVG 1.1//EN" "http://www.w3.org/Graphics/SVG/1.1/DTD/svg11.dtd"><svg t="1575688522655" class="icon" viewBox="0 0 1024 1024" version="1.1" xmlns="http://www.w3.org/2000/svg" p-id="974" width="48" height="48" xmlns:xlink="http://www.w3.org/1999/xlink"><defs><style type="text/css"></style></defs><path d="M224 735c-17.673 0-32 14.327-32 32 0 17.673 14.327 32 32 32 17.673 0 32-14.327 32-32 0-17.673-14.327-32-32-32z m448 0H352c-17.673 0-32 14.327-32 32 0 17.496 14.042 31.713 31.47 31.996l0.53 0.004h320c17.673 0 32-14.327 32-32 0-17.673-14.327-32-32-32z m0-192H352c-17.673 0-32 14.327-32 32 0 17.496 14.042 31.713 31.47 31.996l0.53 0.004h320c17.673 0 32-14.327 32-32 0-17.673-14.327-32-32-32z m-448 0c-17.673 0-32 14.327-32 32 0 17.673 14.327 32 32 32 17.673 0 32-14.327 32-32 0-17.673-14.327-32-32-32z m448-192H224c-17.673 0-32 14.327-32 32 0 17.496 14.042 31.713 31.47 31.996l0.53 0.004h448c17.673 0 32-14.327 32-32 0-17.673-14.327-32-32-32z m224 384V160H256l-0.001 65H792c22.091 0 40 17.909 40 40v470h64z m-64 153c0 22.091-17.909 40-40 40H104c-22.091 0-40-17.909-40-40V265c0-22.091 17.909-40 40-40h88v-89c0-22.091 17.909-40 40-40h688c22.091 0 40 17.909 40 40v623c0 22.091-17.909 40-40 40h-88v89z" fill="#1ABC9C" p-id="975"></path></svg>