<?xml version="1.0" standalone="no"?><!DOCTYPE svg PUBLIC "-//W3C//DTD SVG 1.1//EN" "http://www.w3.org/Graphics/SVG/1.1/DTD/svg11.dtd"><svg t="1575688593893" class="icon" viewBox="0 0 1024 1024" version="1.1" xmlns="http://www.w3.org/2000/svg" p-id="1220" width="32" height="32" xmlns:xlink="http://www.w3.org/1999/xlink"><defs><style type="text/css"></style></defs><path d="M512.584 62l365.945 155.715A32 32 0 0 1 898 247.16V510.5c0 154.087-128.5 304.92-385.5 452.5C256.833 815.42 129 664.587 129 510.5V247.12a32 32 0 0 1 19.42-29.423L512.584 62z m0.06 69.579L193 268.24V446h0.13l-0.13 64.56c0.034 119.959 103.433 247.434 319.586 378.163l6.489-3.923C732.08 755.381 834 629.2 834 510.5V268.32L512.644 131.58z m179.568 249.359c12.497 12.497 12.497 32.758 0 45.255l-177.97 177.97a32.312 32.312 0 0 1-2.684 3.043c-6.161 6.162-14.21 9.285-22.285 9.371-8.423 0.185-16.906-2.936-23.335-9.365a32.307 32.307 0 0 1-2.724-3.095l-87.42-87.42c-12.497-12.497-12.497-32.758 0-45.255s32.758-12.497 45.255 0l67.701 67.702 158.207-158.206c12.497-12.497 32.758-12.497 45.255 0z" fill="#1ABC9C" p-id="1221"></path></svg>