<?xml version="1.0" standalone="no"?><!DOCTYPE svg PUBLIC "-//W3C//DTD SVG 1.1//EN" "http://www.w3.org/Graphics/SVG/1.1/DTD/svg11.dtd"><svg t="1575706102730" class="icon" viewBox="0 0 1024 1024" version="1.1" xmlns="http://www.w3.org/2000/svg" p-id="12988" width="32" height="32" xmlns:xlink="http://www.w3.org/1999/xlink"><defs><style type="text/css"></style></defs><path d="M499.014483 162.803002c44.582327 0 87.802877 8.719468 128.461648 25.916767 39.298018 16.621871 74.602855 40.428395 104.931574 70.758138 30.329743 30.329743 54.136268 65.633556 70.758138 104.931574 17.197298 40.658771 25.916767 83.879321 25.916767 128.461648s-8.719468 87.802877-25.916767 128.461648c-16.621871 39.298018-40.428395 74.602855-70.758138 104.931574-30.329743 30.329743-65.633556 54.136268-104.931574 70.758138-40.658771 17.197298-83.879321 25.916767-128.461648 25.916767-44.582327 0-87.802877-8.719468-128.461648-25.916767-39.298018-16.621871-74.602855-40.428395-104.931574-70.758138-30.329743-30.329743-54.136268-65.633556-70.758138-104.931574-17.197298-40.658771-25.916767-83.879321-25.916767-128.461648s8.719468-87.802877 25.916767-128.461648c16.621871-39.298018 40.428395-74.602855 70.758138-104.931574 30.329743-30.329743 65.633556-54.136268 104.931574-70.758138C411.212631 171.52247 454.433181 162.803002 499.014483 162.803002M499.014483 110.559911c-211.144038 0-382.311217 171.166156-382.311217 382.311217s171.166156 382.311217 382.311217 382.311217 382.311217-171.166156 382.311217-382.311217S710.159545 110.559911 499.014483 110.559911L499.014483 110.559911z" p-id="12989" fill="#1aae15"></path><path d="M634.253275 648.134186l0 54.858112L358.000938 702.992298l0-39.18539c30.031791-54.858112 73.777597-103.16536 131.269161-144.983177 57.460847-40.470375 84.889903-76.410025 82.288192-107.758541 0-39.18539-23.511643-58.777572-70.532882-58.777572-36.582655 1.316726-60.736279 23.510619-72.491588 66.614445L365.837811 391.475055c24.796628-66.614445 72.491588-99.921668 143.02447-99.921668 80.97249 3.918437 124.075292 42.460822 129.309431 115.595414 6.521171 52.256401-26.785028 101.880375-99.91962 148.901613-45.736254 33.980944-78.370779 64.654715-97.962962 92.084795C521.260596 648.134186 585.914287 648.134186 634.253275 648.134186z" p-id="12990" fill="#1aae15"></path></svg>