<?xml version="1.0" standalone="no"?><!DOCTYPE svg PUBLIC "-//W3C//DTD SVG 1.1//EN" "http://www.w3.org/Graphics/SVG/1.1/DTD/svg11.dtd"><svg t="1575706163032" class="icon" viewBox="0 0 1024 1024" version="1.1" xmlns="http://www.w3.org/2000/svg" p-id="14650" width="32" height="32" xmlns:xlink="http://www.w3.org/1999/xlink"><defs><style type="text/css"></style></defs><path d="M499.014483 162.803002c44.582327 0 87.802877 8.719468 128.461648 25.916767 39.298018 16.621871 74.602855 40.428395 104.931574 70.758138 30.329743 30.329743 54.136268 65.633556 70.758138 104.931574 17.197298 40.658771 25.916767 83.879321 25.916767 128.461648s-8.719468 87.802877-25.916767 128.461648c-16.621871 39.298018-40.428395 74.602855-70.758138 104.931574-30.329743 30.329743-65.633556 54.136268-104.931574 70.758138-40.658771 17.197298-83.879321 25.916767-128.461648 25.916767-44.582327 0-87.802877-8.719468-128.461648-25.916767-39.298018-16.621871-74.602855-40.428395-104.931574-70.758138-30.329743-30.329743-54.136268-65.633556-70.758138-104.931574-17.197298-40.658771-25.916767-83.879321-25.916767-128.461648s8.719468-87.802877 25.916767-128.461648c16.621871-39.298018 40.428395-74.602855 70.758138-104.931574 30.329743-30.329743 65.633556-54.136268 104.931574-70.758138C411.212631 171.52247 454.433181 162.803002 499.014483 162.803002M499.014483 110.559911c-211.144038 0-382.311217 171.166156-382.311217 382.311217s171.166156 382.311217 382.311217 382.311217 382.311217-171.166156 382.311217-382.311217S710.159545 110.559911 499.014483 110.559911L499.014483 110.559911z" p-id="14651" fill="#1aae15"></path><path d="M497.106972 291.553387l48.981993 0 0 413.399665-64.655739 0c0-78.369755 0-177.617702 0-297.804251-24.827345 18.306174-59.45027 36.582655-103.840105 54.859136l0-62.696009C442.89084 371.881848 482.718211 335.972915 497.106972 291.553387z" p-id="14652" fill="#1aae15"></path></svg>